# xmcd
#
# Track frame offsets: 
#        150
#        22395
#        40011
#        61394
#        84512
#        98947
#        110491
#        118303
#        135995
#        164843
#        183127
#        197573
#        212984
#        225513
#        239947
#        260356
#        272143
#        298853
#
# Disc length: 4433 seconds
#
# Revision: 3
# Processed by: cddbd v1.5.2PL0 Copyright (c) Steve Scherf et al.
# Submitted via: ExactAudioCopy v0.99pb4
#
DISCID=16114f12
DTITLE=Various Artist - NRG Eeesence Mixed by Yoji Biomehanika
DYEAR=1999
DGENRE=Trance
TTITLE0=Planisphere - Deep Blue Dream (Deep Sky Mix)
TTITLE1=Kosmonova Presents Mike Brings - Acid Folk 2000 (Kosmonova Mix
TTITLE1=)
TTITLE2=DJ Glenn Miller - AK47
TTITLE3=Nish - The Philosophy Of Religion (Yoji Biomehanika Hellhouse 
TTITLE3=Remix)
TTITLE4=RR Fierce - Start Rockin'
TTITLE5=The Alien Thing - Salad Boy
TTITLE6=BK - Please F**k Me
TTITLE7=Chris-C - Fool's Gold (Yoji Biomehanika Remix)
TTITLE8=Yoji Biomehanika - Go Mad! (Hellhouse Original Mix)
TTITLE9=Overrider - Ravey Davey
TTITLE10=Scott Brown - You Got The Chance
TTITLE11=Mist Abishi - Disco Sucks
TTITLE12=Well Paid Scientists - Highnoon In Gotham City (Jon The Denti
TTITLE12=st Big Club Club Remix)
TTITLE13=DJ Choci and The Powder Front - Just Feel It (Freaky People'99 
TTITLE13=Remix)
TTITLE14=DJ Tom Stevens vs Fridge - Outface 2000 (Lac Terra Remixxx)
TTITLE15=Free Radical - Unity Theme (Thrillseekers Avin'It Mix)
TTITLE16=Lab4 - Concept Of Love
TTITLE17=Yoji Biomehanika - Seduction (Trance Mix)
EXTD=YEAR: 1999
EXTT0=
EXTT1=
EXTT2=
EXTT3=
EXTT4=
EXTT5=
EXTT6=
EXTT7=
EXTT8=
EXTT9=
EXTT10=
EXTT11=
EXTT12=
EXTT13=
EXTT14=
EXTT15=
EXTT16=
EXTT17=
PLAYORDER=
